<svg id="visual" viewBox="0 0 1920 1080" width="1920" height="1080" xmlns="http://www.w3.org/2000/svg" xmlns:xlink="http://www.w3.org/1999/xlink" version="1.1"><path d="M794 1080L830.7 1060C867.3 1040 940.7 1000 937.7 960C934.7 920 855.3 880 815.3 840C775.3 800 774.7 760 807 720C839.3 680 904.7 640 898.3 600C892 560 814 520 826.3 480C838.7 440 941.3 400 968.8 360C996.3 320 948.7 280 932.3 240C916 200 931 160 910.3 120C889.7 80 833.3 40 805.2 20L777 0L1920 0L1920 20C1920 40 1920 80 1920 120C1920 160 1920 200 1920 240C1920 280 1920 320 1920 360C1920 400 1920 440 1920 480C1920 520 1920 560 1920 600C1920 640 1920 680 1920 720C1920 760 1920 800 1920 840C1920 880 1920 920 1920 960C1920 1000 1920 1040 1920 1060L1920 1080Z" fill="#4facf7"></path><path d="M1011 1080L1035.8 1060C1060.7 1040 1110.3 1000 1123.3 960C1136.3 920 1112.7 880 1111 840C1109.3 800 1129.7 760 1135.8 720C1142 680 1134 640 1118 600C1102 560 1078 520 1084.5 480C1091 440 1128 400 1114.5 360C1101 320 1037 280 1007.8 240C978.7 200 984.3 160 993.5 120C1002.7 80 1015.3 40 1021.7 20L1028 0L1920 0L1920 20C1920 40 1920 80 1920 120C1920 160 1920 200 1920 240C1920 280 1920 320 1920 360C1920 400 1920 440 1920 480C1920 520 1920 560 1920 600C1920 640 1920 680 1920 720C1920 760 1920 800 1920 840C1920 880 1920 920 1920 960C1920 1000 1920 1040 1920 1060L1920 1080Z" fill="#3d9dfc"></path><path d="M1236 1080L1260.7 1060C1285.3 1040 1334.7 1000 1362.5 960C1390.3 920 1396.7 880 1387.7 840C1378.7 800 1354.3 760 1322.8 720C1291.3 680 1252.7 640 1226.7 600C1200.7 560 1187.3 520 1197.2 480C1207 440 1240 400 1249 360C1258 320 1243 280 1266.7 240C1290.3 200 1352.7 160 1356.8 120C1361 80 1307 40 1280 20L1253 0L1920 0L1920 20C1920 40 1920 80 1920 120C1920 160 1920 200 1920 240C1920 280 1920 320 1920 360C1920 400 1920 440 1920 480C1920 520 1920 560 1920 600C1920 640 1920 680 1920 720C1920 760 1920 800 1920 840C1920 880 1920 920 1920 960C1920 1000 1920 1040 1920 1060L1920 1080Z" fill="#408bfe"></path><path d="M1429 1080L1444.8 1060C1460.7 1040 1492.3 1000 1485 960C1477.7 920 1431.3 880 1415.7 840C1400 800 1415 760 1429.8 720C1444.7 680 1459.3 640 1476.7 600C1494 560 1514 520 1517.2 480C1520.3 440 1506.7 400 1486.5 360C1466.3 320 1439.7 280 1427.7 240C1415.7 200 1418.3 160 1442.8 120C1467.3 80 1513.7 40 1536.8 20L1560 0L1920 0L1920 20C1920 40 1920 80 1920 120C1920 160 1920 200 1920 240C1920 280 1920 320 1920 360C1920 400 1920 440 1920 480C1920 520 1920 560 1920 600C1920 640 1920 680 1920 720C1920 760 1920 800 1920 840C1920 880 1920 920 1920 960C1920 1000 1920 1040 1920 1060L1920 1080Z" fill="#5576fb"></path><path d="M1741 1080L1716.3 1060C1691.7 1040 1642.3 1000 1633 960C1623.7 920 1654.3 880 1687.5 840C1720.7 800 1756.3 760 1755.2 720C1754 680 1716 640 1710.7 600C1705.3 560 1732.7 520 1718.7 480C1704.7 440 1649.3 400 1644.3 360C1639.3 320 1684.7 280 1714.5 240C1744.3 200 1758.7 160 1738.8 120C1719 80 1665 40 1638 20L1611 0L1920 0L1920 20C1920 40 1920 80 1920 120C1920 160 1920 200 1920 240C1920 280 1920 320 1920 360C1920 400 1920 440 1920 480C1920 520 1920 560 1920 600C1920 640 1920 680 1920 720C1920 760 1920 800 1920 840C1920 880 1920 920 1920 960C1920 1000 1920 1040 1920 1060L1920 1080Z" fill="#715df2"></path></svg>